/* XPM */
static char * sixa_xpm[] = {
"48 48 707 2",
"  	c None",
". 	c #80E5FF",
"+ 	c #80E4FF",
"@ 	c #81E4FF",
"# 	c #80E6FF",
"$ 	c #81E5FF",
"% 	c #7FE4FF",
"& 	c #7FE5FF",
"* 	c #60A4B6",
"= 	c #48707A",
"- 	c #3C5960",
"; 	c #4C7B87",
"> 	c #71C4DB",
", 	c #79D7EF",
"' 	c #548A98",
") 	c #456973",
"! 	c #446872",
"~ 	c #568E9D",
"{ 	c #7CDDF6",
"] 	c #49727D",
"^ 	c #40494B",
"/ 	c #737576",
"( 	c #7B7F80",
"_ 	c #5D6162",
": 	c #323B3E",
"< 	c #6AB7CA",
"[ 	c #83E6FF",
"} 	c #86E6FF",
"| 	c #7BDAF3",
"1 	c #303A3E",
"2 	c #4F5A5D",
"3 	c #676A6B",
"4 	c #66696A",
"5 	c #4B5457",
"6 	c #35464B",
"7 	c #81E6FF",
"8 	c #7FE3FD",
"9 	c #2E393D",
"0 	c #858989",
"a 	c #414546",
"b 	c #424647",
"c 	c #606364",
"d 	c #717375",
"e 	c #44656F",
"f 	c #8BE7FF",
"g 	c #96E9FF",
"h 	c #A0ECFF",
"i 	c #A7EDFF",
"j 	c #AAEEFF",
"k 	c #ABEEFF",
"l 	c #60A2B4",
"m 	c #464C4E",
"n 	c #464A4B",
"o 	c #3F4344",
"p 	c #626566",
"q 	c #374043",
"r 	c #70C5DA",
"s 	c #6AB8CD",
"t 	c #3D4346",
"u 	c #686B6C",
"v 	c #404445",
"w 	c #45494B",
"x 	c #464B4C",
"y 	c #898C8D",
"z 	c #323C3F",
"A 	c #76A1AC",
"B 	c #77A1AC",
"C 	c #77A2AD",
"D 	c #78A2AD",
"E 	c #77A1AD",
"F 	c #3F4F54",
"G 	c #6B6E70",
"H 	c #4B4F51",
"I 	c #474C4D",
"J 	c #424748",
"K 	c #494C4D",
"L 	c #4C5050",
"M 	c #4E7B87",
"N 	c #75CDE5",
"O 	c #34494E",
"P 	c #5F6364",
"Q 	c #575C5D",
"R 	c #606667",
"S 	c #636869",
"T 	c #656B6C",
"U 	c #5F6565",
"V 	c #505456",
"W 	c #505556",
"X 	c #515657",
"Y 	c #525758",
"Z 	c #535859",
"` 	c #54595A",
" .	c #555A5B",
"..	c #4F5455",
"+.	c #4D5253",
"@.	c #4B5051",
"#.	c #626769",
"$.	c #686E6E",
"%.	c #63696A",
"&.	c #535759",
"*.	c #65ACBF",
"=.	c #7CDFF8",
"-.	c #354A4F",
";.	c #4F575A",
">.	c #3B4143",
",.	c #666A6C",
"'.	c #4A5051",
").	c #5A5F60",
"!.	c #626868",
"~.	c #585D5F",
"{.	c #64686A",
"].	c #6B6F70",
"^.	c #6F7273",
"/.	c #717475",
"(.	c #747778",
"_.	c #767A7A",
":.	c #7A7D7E",
"<.	c #7B7F7F",
"[.	c #797C7D",
"}.	c #737777",
"|.	c #6F7374",
"1.	c #686C6D",
"2.	c #646868",
"3.	c #5C6263",
"4.	c #5E6364",
"5.	c #73797A",
"6.	c #4D5254",
"7.	c #717677",
"8.	c #3F4546",
"9.	c #43494B",
"0.	c #374B51",
"a.	c #6CBDD2",
"b.	c #62A7B9",
"c.	c #455359",
"d.	c #343A3C",
"e.	c #393F41",
"f.	c #5D6364",
"g.	c #34393B",
"h.	c #2E3436",
"i.	c #565B5D",
"j.	c #5B6062",
"k.	c #575B5C",
"l.	c #585C5D",
"m.	c #5C6061",
"n.	c #636768",
"o.	c #666A6B",
"p.	c #676B6C",
"q.	c #606465",
"r.	c #595D5E",
"s.	c #565A5C",
"t.	c #5B6162",
"u.	c #585E5F",
"v.	c #595E60",
"w.	c #54664A",
"x.	c #3A4D31",
"y.	c #555B5C",
"z.	c #363C3E",
"A.	c #434D4F",
"B.	c #4A7580",
"C.	c #436771",
"D.	c #474D4F",
"E.	c #5A6263",
"F.	c #414647",
"G.	c #292E30",
"H.	c #4F5456",
"I.	c #5C6162",
"J.	c #595F60",
"K.	c #5F6466",
"L.	c #5A5E5F",
"M.	c #494E4F",
"N.	c #2D3233",
"O.	c #2F3335",
"P.	c #616566",
"Q.	c #626667",
"R.	c #3E4244",
"S.	c #2E3234",
"T.	c #3B3F41",
"U.	c #535758",
"V.	c #656A6B",
"W.	c #676C6E",
"X.	c #585C5E",
"Y.	c #2F3A32",
"Z.	c #323A36",
"`.	c #5B6061",
" +	c #575D5E",
".+	c #42494B",
"++	c #334449",
"@+	c #7FE2FC",
"#+	c #303F44",
"$+	c #3C4243",
"%+	c #454A4C",
"&+	c #32383A",
"*+	c #495051",
"=+	c #474C4E",
"-+	c #44494B",
";+	c #383B3C",
">+	c #474949",
",+	c #2B2F31",
"'+	c #35393A",
")+	c #3A3D3E",
"!+	c #292E31",
"~+	c #434848",
"{+	c #575B5D",
"]+	c #5F6465",
"^+	c #484C4D",
"/+	c #545158",
"(+	c #4E4647",
"_+	c #353B3C",
":+	c #3E4345",
"<+	c #3E5055",
"[+	c #79D6EF",
"}+	c #38484C",
"|+	c #3D4245",
"1+	c #272C2E",
"2+	c #25292B",
"3+	c #3B4042",
"4+	c #4B5153",
"5+	c #363C3D",
"6+	c #232728",
"7+	c #474D4E",
"8+	c #4B4E50",
"9+	c #3A3E3F",
"0+	c #3A3E40",
"a+	c #404446",
"b+	c #484C4E",
"c+	c #494D4E",
"d+	c #505455",
"e+	c #54585A",
"f+	c #53595A",
"g+	c #3B3F40",
"h+	c #534D58",
"i+	c #313738",
"j+	c #4D5354",
"k+	c #4B5152",
"l+	c #5E3D3F",
"m+	c #2E3336",
"n+	c #393E40",
"o+	c #455256",
"p+	c #63A3B4",
"q+	c #45565A",
"r+	c #373D3F",
"s+	c #3A4042",
"t+	c #33383A",
"u+	c #394041",
"v+	c #2E3537",
"w+	c #3D4345",
"x+	c #34393A",
"y+	c #555A5C",
"z+	c #4C5051",
"A+	c #4E5253",
"B+	c #4F5354",
"C+	c #3B3E3F",
"D+	c #444848",
"E+	c #515556",
"F+	c #4C5253",
"G+	c #414748",
"H+	c #353A3C",
"I+	c #444849",
"J+	c #404546",
"K+	c #393F40",
"L+	c #303537",
"M+	c #383C3F",
"N+	c #4D5B5F",
"O+	c #648D98",
"P+	c #6AA5B5",
"Q+	c #505E62",
"R+	c #303638",
"S+	c #2B3232",
"T+	c #2D3133",
"U+	c #3E4346",
"V+	c #3B4144",
"W+	c #494F51",
"X+	c #535959",
"Y+	c #4A4E4F",
"Z+	c #4B4F50",
"`+	c #2F3334",
" @	c #44484A",
".@	c #1E2223",
"+@	c #474A4B",
"@@	c #4E5254",
"#@	c #363B3E",
"$@	c #363B3F",
"%@	c #414549",
"&@	c #404547",
"*@	c #505B64",
"=@	c #364047",
"-@	c #2F3537",
";@	c #2E3536",
">@	c #2D3435",
",@	c #58747B",
"'@	c #8FE8FF",
")@	c #658C97",
"!@	c #596467",
"~@	c #212526",
"{@	c #262B2D",
"]@	c #3A3F42",
"^@	c #2A2F32",
"/@	c #2B3234",
"(@	c #2D3335",
"_@	c #2A2F31",
":@	c #53585A",
"<@	c #212426",
"[@	c #282E2F",
"}@	c #1F2324",
"|@	c #3F4243",
"1@	c #454A4D",
"2@	c #292F32",
"3@	c #2A3032",
"4@	c #262C2D",
"5@	c #383E3F",
"6@	c #2A3033",
"7@	c #282F32",
"8@	c #282D2E",
"9@	c #464D4E",
"0@	c #45595E",
"a@	c #A2ECFF",
"b@	c #87E6FF",
"c@	c #57737A",
"d@	c #5E6768",
"e@	c #282B2C",
"f@	c #282D2D",
"g@	c #2E3235",
"h@	c #2F3436",
"i@	c #2F3637",
"j@	c #313739",
"k@	c #333A3C",
"l@	c #272D2F",
"m@	c #333A3D",
"n@	c #343B3D",
"o@	c #2C3133",
"p@	c #262A2C",
"q@	c #595F62",
"r@	c #25282A",
"s@	c #2F3234",
"t@	c #2C3033",
"u@	c #373E41",
"v@	c #303639",
"w@	c #262B2C",
"x@	c #2D3436",
"y@	c #292E2F",
"z@	c #242829",
"A@	c #3D4041",
"B@	c #38464A",
"C@	c #97EAFF",
"D@	c #43565C",
"E@	c #5F6363",
"F@	c #262A2B",
"G@	c #313638",
"H@	c #34393C",
"I@	c #383D3E",
"J@	c #303637",
"K@	c #252A2C",
"L@	c #525659",
"M@	c #4E5152",
"N@	c #4D5152",
"O@	c #4D5051",
"P@	c #24292A",
"Q@	c #2B3133",
"R@	c #2C3234",
"S@	c #232829",
"T@	c #313538",
"U@	c #33393A",
"V@	c #393E3F",
"W@	c #2C3132",
"X@	c #343738",
"Y@	c #3A484C",
"Z@	c #A6E8F8",
"`@	c #9EEBFF",
" #	c #364346",
".#	c #5A5D5E",
"+#	c #202425",
"@#	c #222627",
"##	c #363A3C",
"$#	c #3E4242",
"%#	c #343839",
"&#	c #2B2F30",
"*#	c #363C3F",
"=#	c #212425",
"-#	c #212627",
";#	c #5A6061",
">#	c #3F4648",
",#	c #3E4548",
"'#	c #3E4447",
")#	c #515757",
"!#	c #313637",
"~#	c #272C2D",
"{#	c #252A2B",
"]#	c #1D2224",
"^#	c #2B3031",
"/#	c #2B3030",
"(#	c #545859",
"_#	c #393D3E",
":#	c #2D3132",
"<#	c #425458",
"[#	c #94CDDC",
"}#	c #9FE4F6",
"|#	c #394649",
"1#	c #323638",
"2#	c #505355",
"3#	c #323738",
"4#	c #464B4E",
"5#	c #4F666D",
"6#	c #81B0BD",
"7#	c #6C909A",
"8#	c #343B3C",
"9#	c #1D2121",
"0#	c #1D2021",
"a#	c #242A2B",
"b#	c #3D4243",
"c#	c #3D4142",
"d#	c #5A5E60",
"e#	c #626768",
"f#	c #464A4C",
"g#	c #232729",
"h#	c #282C2D",
"i#	c #47595E",
"j#	c #82B3C0",
"k#	c #A4ECFF",
"l#	c #92CAD9",
"m#	c #435256",
"n#	c #424546",
"o#	c #474B4C",
"p#	c #505254",
"q#	c #282D2F",
"r#	c #373D40",
"s#	c #454B4C",
"t#	c #444A4C",
"u#	c #3D4344",
"v#	c #39454A",
"w#	c #A9EAFB",
"x#	c #58757C",
"y#	c #373E40",
"z#	c #363A3D",
"A#	c #283031",
"B#	c #313537",
"C#	c #727878",
"D#	c #555A5A",
"E#	c #313536",
"F#	c #46575A",
"G#	c #7198A3",
"H#	c #A9EDFF",
"I#	c #7EB0BC",
"J#	c #4A595D",
"K#	c #373B3C",
"L#	c #74797A",
"M#	c #565A5B",
"N#	c #454949",
"O#	c #6F97A1",
"P#	c #739CA7",
"Q#	c #405257",
"R#	c #38474A",
"S#	c #3D4C51",
"T#	c #78A3AF",
"U#	c #A7E8F8",
"V#	c #A8EAFB",
"W#	c #8DC3D0",
"X#	c #4A5F66",
"Y#	c #3A494E",
"Z#	c #58757D",
"`#	c #90C6D4",
" $	c #2C3335",
".$	c #4A4F4F",
"+$	c #6D7373",
"@$	c #606565",
"#$	c #3B4041",
"$$	c #3F4D4F",
"%$	c #5F7F87",
"&$	c #69949F",
"*$	c #4F5C5F",
"=$	c #2C3031",
"-$	c #3B3F3F",
";$	c #5C6161",
">$	c #696D6D",
",$	c #494E4E",
"'$	c #4D4F51",
")$	c #2C3336",
"!$	c #68909A",
"~$	c #668D98",
"{$	c #7BABB7",
"]$	c #9DD9EA",
"^$	c #A3E3F3",
"/$	c #82B4C2",
"($	c #618690",
"_$	c #A3E1F2",
":$	c #739FAB",
"<$	c #2F3C40",
"[$	c #323637",
"}$	c #3C4041",
"|$	c #424547",
"1$	c #1F2223",
"2$	c #1D2122",
"3$	c #323B3D",
"4$	c #4D646A",
"5$	c #618B96",
"6$	c #4E595B",
"7$	c #1C1F20",
"8$	c #3B3E40",
"9$	c #292C2C",
"0$	c #151D1E",
"a$	c #5A7D85",
"b$	c #638993",
"c$	c #456066",
"d$	c #709CA7",
"e$	c #9EDCEC",
"f$	c #82B6C2",
"g$	c #668E98",
"h$	c #7DADB9",
"i$	c #222E32",
"j$	c #2E3F44",
"k$	c #2E3538",
"l$	c #343739",
"m$	c #494D4F",
"n$	c #575B5B",
"o$	c #434748",
"p$	c #242727",
"q$	c #1C2021",
"r$	c #2A2E2F",
"s$	c #425459",
"t$	c #9DEAFE",
"u$	c #60909D",
"v$	c #495357",
"w$	c #1B1E1F",
"x$	c #494A4C",
"y$	c #0E1012",
"z$	c #6D97A2",
"A$	c #99D5E4",
"B$	c #91C9D7",
"C$	c #87BBC8",
"D$	c #8AC1CE",
"E$	c #88BDCB",
"F$	c #97D2E1",
"G$	c #96D1E0",
"H$	c #4B686F",
"I$	c #5A7E87",
"J$	c #243336",
"K$	c #2F393D",
"L$	c #383C3D",
"M$	c #3F4343",
"N$	c #242929",
"O$	c #2F3638",
"P$	c #4B6167",
"Q$	c #96E8FE",
"R$	c #6CB4C7",
"S$	c #343F42",
"T$	c #4A4D4E",
"U$	c #303334",
"V$	c #26292B",
"W$	c #2E3133",
"X$	c #3E4143",
"Y$	c #333B3D",
"Z$	c #1B2225",
"`$	c #648B95",
" %	c #94CEDD",
".%	c #6B939E",
"+%	c #40595F",
"@%	c #82B4C1",
"#%	c #28373B",
"$%	c #83B5C2",
"%%	c #54737C",
"&%	c #445F66",
"*%	c #8EC5D3",
"=%	c #243134",
"-%	c #88BDCA",
";%	c #476269",
">%	c #4C6970",
",%	c #2C3437",
"'%	c #2E3032",
")%	c #26292A",
"!%	c #384649",
"~%	c #76A3AF",
"{%	c #648F9A",
"]%	c #313B3E",
"^%	c #303436",
"/%	c #414445",
"(%	c #648C95",
"_%	c #29383D",
":%	c #2A3A3E",
"<%	c #4A666D",
"[%	c #8FC7D5",
"}%	c #678F99",
"|%	c #3E565D",
"1%	c #638992",
"2%	c #33464C",
"3%	c #6B949F",
"4%	c #2B3C41",
"5%	c #88BECB",
"6%	c #628892",
"7%	c #3C5359",
"8%	c #6F9AA5",
"9%	c #304247",
"0%	c #4F6970",
"a%	c #293134",
"b%	c #24292B",
"c%	c #303A3D",
"d%	c #516C73",
"e%	c #9ADBEC",
"f%	c #83B6C3",
"g%	c #506A71",
"h%	c #3A494D",
"i%	c #668993",
"j%	c #8EC6D4",
"k%	c #90C8D6",
"l%	c #6E98A2",
"m%	c #47636A",
"n%	c #212D31",
"o%	c #658C96",
"p%	c #3F565D",
"q%	c #435C63",
"r%	c #1F2B2E",
"s%	c #76A4AF",
"t%	c #374C51",
"u%	c #678E99",
"v%	c #8FC6D4",
"w%	c #27363A",
"x%	c #78A6B2",
"y%	c #749FAB",
"z%	c #4A6167",
"A%	c #39484C",
"B%	c #74A0AA",
"C%	c #9CD8E8",
"D%	c #85C6D6",
"E%	c #96D0DF",
"F%	c #5B7E87",
"G%	c #3A4F56",
"H%	c #90C9D7",
"I%	c #34474C",
"J%	c #253336",
"K%	c #709BA6",
"L%	c #1E292C",
"M%	c #243235",
"N%	c #202B2E",
"O%	c #4F6D75",
"P%	c #98D4E3",
"Q%	c #8BC6D5",
"R%	c #94CCDC",
"S%	c #9AD6E5",
"T%	c #98D3E2",
"U%	c #8DC4D1",
"V%	c #54757D",
"W%	c #395055",
"X%	c #6F99A4",
"Y%	c #435D63",
"Z%	c #53737B",
"`%	c #49666D",
" &	c #81B3BF",
".&	c #2A3B40",
"+&	c #597C84",
"@&	c #82B5C1",
"#&	c #273539",
"$&	c #9BD8E7",
"%&	c #9ACCD8",
"&&	c #99D8E6",
"*&	c #9FDDED",
"=&	c #99D4E3",
"-&	c #455F66",
";&	c #56777F",
">&	c #3E565C",
",&	c #263539",
"'&	c #7AAAB6",
")&	c #729EA9",
"!&	c #77A6B1",
"~&	c #324549",
"{&	c #9DDAE9",
"]&	c #2E3E43",
"^&	c #7AA9B5",
"/&	c #364A50",
"(&	c #74A1AC",
"_&	c #9DD5E3",
":&	c #A0DFEF",
"<&	c #A4E5F5",
"[&	c #9DDBEB",
"}&	c #7FB1BE",
"|&	c #73A0AB",
"1&	c #7BACB8",
"2&	c #8DC5D3",
"3&	c #8BC2CF",
"4&	c #96D1DF",
"5&	c #A3E4F4",
"6&	c #85B9C6",
"7&	c #83B8C4",
"8&	c #A2E2F2",
"9&	c #91CAD7",
"0&	c #92CCD9",
"a&	c #A5DEEC",
"b&	c #A5E6F6",
"c&	c #ABECFC",
"d&	c #AAECFD",
"e&	c #ACECFC",
"f&	c #ADE4F2",
"g&	c #A8ECFE",
"h&	c #A6EBFD",
"i&	c #ABEDFF",
"j&	c #AAEAFB",
"k&	c #A2EAFC",
"l&	c #A7ECFD",
"m&	c #A9EBFD",
"n&	c #A4E9FA",
"o&	c #9AE7FB",
"p&	c #9FE9FB",
"q&	c #9FE8FB",
"r&	c #A3EAFD",
"s&	c #A5ECFE",
"t&	c #A5EBFD",
"u&	c #A3EBFD",
"v&	c #A1E9FC",
"w&	c #9FE7FB",
"x&	c #9DE7FB",
"                                                                                                ",
"                                                                                                ",
"                                                                                                ",
"                                                                                                ",
"                                                                                                ",
"                                      . + . + . . . + . .                                       ",
"                                @ . . . . . . . . . . . . . # $                                 ",
"                          # $ . . . . . . . . . . . . . . . . . . %                             ",
"                        # . . . . . . . . . . . . . . . . . . . . . . #                         ",
"                    . . . . . . . . . . . . . . . . . . . . . . . . . . #                       ",
"                  & * = - ; > . . . . . . . . . . . . . . . . . , ' ) ! ~ { .                   ",
"                % ] ^ / ( _ : < . . . . . . [ } } [ . . . . . | 1 2 3 4 5 6 . 7                 ",
"              # 8 9 0 a b c d e $ f g h i j k k k k j i h g f l m 3 n o p q r . .               ",
"            . . s t u v w x y z A B B C C D D D D D D C E B B F G H I J K L M . . $             ",
"            . N O P Q R S T U S V W X Y Z `  . .` Z Y W ..+.@.Y #.$.T %.R &.6 *.. .             ",
"          . =.-.;.>.,.'.m ).!.~.{.].^./.(._.:.<.[._.}.|.].1.2.3.4.5.6.x 7.8.9.0.a.. #           ",
"        + . b.c.d.e.f.g.h.m 3.i.j.k.l.m.P n.o.p.o.n.q._ r.s.t.u.v.k.w.x.y.>.z.A.B.. .           ",
"        . . C.D.E.u.f.F.G.H.I.J.K.L.M.G.N.O.P.Q.P.R.S.T.U.l.V.W.X.Q Y.Z.`.W  +.+++@+. .         ",
"        . . #+$+%+h.&+*+=+-+h.G.W ).J ;+>+,+m.m.m.'+)+!+~+{+]+^+/+e. + +%+(+_+:+<+a.. &         ",
"      7 . [+}+z.|+1+2+3+4+5+1+6+7+u.8+9+0+a+k.k.k.b+o c+d+e+f+g+h+i+j+k+0+l+m+n+o+p+. .         ",
"      + . a.q+r+s+t+0+u+v+w+5+x+J y+z+A+B+d+@.C+D+E+B+A+z+..F+G+H+I+J+x+K+L+M+g.N+O+. . .       ",
"      . . P+Q+r+R+R+5+S+1+T+U+%+V+d.W+X+Y+Z+`+ @.@+@Y+@@@.#@$@%@&@R.*@=@R+-@;@>@2 ,@'@. .       ",
"      . . )@!@'+>@h.-@2+~@{@]@^@/@(@_@5+:@n <@[@}@|@Y+1@2@(@3@4@5@h.6@7@>@h.h.8@9@0@a@. #       ",
"      . b@c@d@e@f@g@h@i@R+j@k@l@m@n@o@p@q@v '+r@s@v d+t@(@u@v@w@_@i@x@h.h.m+y@z@A@B@k b@.       ",
"      . C@D@E@~@z@F@,+G@H@I@J@K@h.h.G.z@L@Z+M@N@O@Z+6.P@Q@-@R@2+S@T@U@V@T.W@6+~@X@Y@Z@C@.       ",
"      . `@ #.#.@+#@###$#%#&#*#=#K@{@-#z@;#%+>#>#,#'#)#!#-#~#{#]#^#/#J k.(#_#+#.@:#<#[#`@.       ",
"      . }#|#M@.@.@1#M.H _#b 2#3#}@.@P@=+4#5#6#6#6#7#8#.+w@9#0#a#r+b#c#d#e#f#g#.@h#i#j#k#&       ",
"      . l#m#n#.@F@o#4.` 9+p#q#r#s#t#F+u#v#w#k k k k x#j@R.y#z#3#A#B#0+` C#D#E#.@6+F#G#H##       ",
"      & I#J#K#.@%#k.L#M#N#_+O#P#Q#R#S#T#U#V#V#V#V#V#V#W#X# #Y#Z#`# $;+.$+$@$#$.@+#$$%$i +       ",
"      + &$*$=$9#-$;$>$,$'$)$!$~${$]$^$/$($^$^$^$^$^$^$^$^$^$^$_$:$<$[$}$`.@$|$1$2$3$4$a@        ",
"        5$6$z@7$8$U.E+v 9$0$a$b$c$d$e$f$g$e$e$e$e$e$e$e$e$e$e$h$i$j$k$l$m$n$o$p$q$r$s$t$        ",
"        u$v$&#w$[$a+_#x$y$z$A$A$A$A$A$B$C$A$D$E$A$A$F$I#G$A$A$H$I$J$K$r$L$o#M$N$q$O$P$Q$        ",
"        R$S$T$U$V$W$X$Y$Z$`$[# % % % %.%+% %@%#%$% %%%&% % %*%=%-%;%>%,%'%;+'+F@)%!%~%          ",
"          {%]%^%/%8$R+!%(%_%:%<%{$[%[%}%|%[%[%1%2%3%4%5%[%[%6%7%[%8%9%0%a%&#1#b%c%d%e%          ",
"            f%g%h%0@i%j%k%*%l%m%n%o%k%}%p%k%k%k%q%r%s%k%k%k%t%u%k%v%w%x%y%z%A%z%B%C%            ",
"            D%E% % % % % % % % %F%G% %.%+% % %H%I%J%K% % %/$L%M%J%J%N%O% % % %G$P%Q%            ",
"              R%S%S%S%T%U%S%S%S%V%W%S%X%Y%S%S%Z%`% &.&U%S%+&`%G$G$G$@&#&G$S%S%$&%&              ",
"                &&*&*&=&J%-&;&>&,&'&*&)&-&*&!&~&T%*&g$>&{&]&^&*&*&*&*&/&(&*&*&_&                ",
"                  :&<&<&[&}&|&1&$&<&<&A$2&<&3&4&<&<&5&6&P%7&8&<&<&<&<&9&0&<&a&                  ",
"                    b&c&d&d&d&d&d&d&d&d&d&d&d&d&d&d&d&d&d&d&d&d&d&d&d&d&e&f&                    ",
"                        g&k k k k k k k k k k k k k k k k k k k k k k e&                        ",
"                            h&k k k k k k k k k k k k k k k k k i&j&                            ",
"                                k&l&k k k k k k k k k k k k m&n&                                ",
"                                      o&p&q&r&s&t&u&v&w&x&                                      ",
"                                                                                                ",
"                                                                                                ",
"                                                                                                ",
"                                                                                                "};
